# xmcd CD database file
#
# Track frame offsets:
#	150
#	19725
#	38385
#	60380
#	79135
#	95847
#	118177
#	136890
#	157280
#	176902
#	196917
#	215025
#	232425
#	248897
#
# Disc length: 3560 seconds
#
# Revision: 2
# Processed by: cddbd v1.5.2PL0 Copyright (c) Steve Scherf et al.
# Submitted via: CDex 1.70beta2
#
DISCID=cd0de60e
DTITLE=KIM JONG HWAN - FOR LOVE
DYEAR=1997
DGENRE=Ballad
TTITLE0=쨩챌쨋청?쨩 ?짠횉횕쩔짤
TTITLE1=쨩챌쨋청횉횕쨈횂 ?횑쩔징째횚
TTITLE2=째첩횁쨍?횉 ?횉쨔횑
TTITLE3=쩍쩍횈횤횉횕횁철쨍쨋
TTITLE4=횁쨍?챌?횉 ?횑?짱 II
TTITLE5=횈챠횁철쨍짝 쩍찼쩔채
TTITLE6=횉횗 쨩챌쨋첨?쨩 ?짠횉횠
TTITLE7=쨩챌쨋청?쨩 ?짠횉횕쩔짤 (Duet with 횁쨋쩔쨉쨀짼)
TTITLE8=쨀횎?횉 쨘처?횣쨍짰
TTITLE9=21쩌쩌짹창쩔징 19쩌쩌짹창 쨩챌쨋청
TTITLE10=쨔횢쨈책째징쩔징쩌짯
TTITLE11=짹횞쨍짰쩔챤 쩐처짹쩌
TTITLE12=쨉쨔쩐횈쩔횒
TTITLE13=쨩챌쨋청횉횕쨈횂 쨔첵째첬 쩔챘쩌짯횉횕쨈횂 쨔첵
EXTD=YEAR: 1997
EXTT0=
EXTT1=
EXTT2=
EXTT3=
EXTT4=
EXTT5=
EXTT6=
EXTT7=
EXTT8=
EXTT9=
EXTT10=
EXTT11=
EXTT12=
EXTT13=
PLAYORDER=
